<svg version="1.1" id="Layer_1" xmlns="http://www.w3.org/2000/svg" x="0" y="0" viewBox="0 0 256 256" style="enable-background:new 0 0 256 256" xml:space="preserve"><style>.st0{fill:#fc7783}.st2{fill:#ea4647}.st4{fill:#6dcc6d}.st6{fill:#231f20}</style><g id="Layer_18"><path class="st0" d="M236.1 39c-13.3-13.3-33.9-16.2-50.3-7.1-20.4-11.3-46.1-3.9-57.4 16.5-9.1 16.5-6.2 37 7.1 50.3l34.3 34.3.1.1c8.8 8.7 23 8.7 31.9 0l.1-.1 34.3-34.3c16.4-16.5 16.4-43.2-.1-59.7z"/><path d="M185.8 139.7c-6 0-11.7-2.3-15.9-6.5l-.1-.1-34.3-34.3C123.7 87 119.9 69.5 125.8 54c-7.5.8-14.9 2.8-21.7 5.9-34-15.8-74.4-1.1-90.2 32.9C2.1 118.1 7 148 26.2 168.3c.3-.4.6-.7.9-1 6.6-6.6 17.4-6.6 24 0 .4.4 1 .4 1.3 0 6.6-6.6 17.4-6.6 24 0 6.6 6.6 6.6 17.4 0 24L62.7 205l12.6 12.6.1.1c15.8 15.7 41.2 15.7 57.1.1l.2-.2 47.9-47.9c9.4-9.3 15.8-21.2 18.5-34.2-3.8 2.7-8.5 4.2-13.3 4.2z" style="fill:#fcacb6"/><path class="st0" d="m169.9 133.2-.1-.1-34.3-34.3c-7.8-7.8-12.3-18.4-12.4-29.5-6.8 1.2-13.2 3.8-19 7.5C79.4 61 46.5 68.2 30.7 93c-13.4 21-10.4 48.5 7.2 66.2l3.3 3.3c3.8.5 7.3 2.2 9.9 4.8.4.4 1 .4 1.3 0 6.6-6.6 17.4-6.6 24 0 6.6 6.6 6.6 17.4 0 24l-3.2 3.2L85.8 207l.1.1c10 9.9 26.2 10 36.2 0l.1-.1 47.9-47.9c5.6-5.5 9.8-12.2 12.5-19.6-4.8-.7-9.3-2.9-12.7-6.3z"/><path class="st2" d="M135.4 98.7c-4.2-4.2-7.5-9.3-9.7-14.9-7.7 1.4-14.7 5.1-20.2 10.6-.8.8-2.2.8-3 0-15-15-39.2-15-54.2 0s-15 39.2 0 54.2l13.8 13.8c5.3-.7 10.6 1 14.3 4.8 3.8 3.8 5.5 9 4.8 14.3l15 15 .1.1c4.3 4.2 11.1 4.2 15.4 0l.1-.1 47.9-47.9c4.5-4.5 7.8-9.9 9.6-16l-33.9-33.9z"/><path class="st2" d="M76.4 167.2c-6.6-6.6-17.4-6.6-24 0-.4.4-1 .4-1.3 0-6.6-6.6-17.4-6.6-24 0s-6.6 17.4 0 24l21.2 21.2c1.9 1.9 4.9 1.9 6.8 0l21.2-21.2c6.8-6.6 6.8-17.3.1-24zM225.7 49.5c-10.7-10.7-28.1-10.7-38.8 0-.6.6-1.5.6-2.1 0-10.7-10.7-28.1-10.7-38.8 0-10.7 10.7-10.7 28.1 0 38.8l34.3 34.3.1.1c3.1 3 8 3 11 0l.1-.1 34.3-34.3c10.6-10.7 10.6-28.1-.1-38.8z"/><path d="M122.6 15.2h-1.8v-1.8c0-1.4-1.1-2.5-2.5-2.5s-2.5 1.1-2.5 2.5v1.8H114c-1.4 0-2.5 1.1-2.5 2.5s1.1 2.5 2.5 2.5h1.8V22c0 1.4 1.1 2.5 2.5 2.5s2.5-1.1 2.5-2.5v-1.8h1.8c1.4 0 2.5-1.1 2.5-2.5s-1.1-2.5-2.5-2.5z" style="fill:#ffcd29"/><path class="st4" d="M4.9 199.3c-.1-.3-.2-.6-.4-.9-.1-.1-.2-.3-.3-.4-1-.9-2.5-.9-3.5 0-.1.1-.2.2-.3.4-.1.1-.2.3-.2.4-.1.2-.1.3-.1.5-.1.3-.1.7 0 1 0 .2.1.3.1.5.1.1.1.3.2.4.1.1.2.3.3.4 1 1 2.5 1 3.5 0 .1-.1.2-.2.3-.4.1-.1.2-.3.2-.4.1-.1.1-.3.1-.5.2-.4.2-.7.1-1zM227.3 143.4c-.1-.3-.2-.6-.4-.9-.1-.1-.2-.3-.3-.4-1-.9-2.5-.9-3.5 0-.1.1-.2.2-.3.4-.1.1-.2.3-.2.4-.1.2-.1.3-.1.5-.1.3-.1.7 0 1 0 .2.1.3.1.5.1.1.1.3.2.4.1.1.2.3.3.4 1 1 2.5 1 3.5 0 .1-.1.2-.2.3-.4.1-.1.2-.3.2-.4.1-.1.1-.3.1-.5.2-.4.2-.7.1-1z"/><path class="st2" d="M255.8 120.9c-4.1-.8-7.2-4-8-8 0-.1-.1-.2-.2-.2s-.1.1-.2.2c-.8 4.1-4 7.2-8 8-.1 0-.2.1-.2.2s.1.1.2.2c4.1.8 7.2 4 8 8 0 .1.1.2.2.2s.1-.1.2-.2c.8-4.1 4-7.2 8-8 .1 0 .2-.1.2-.2s-.1-.2-.2-.2z"/><path d="M33.6 221c-4.1-.8-7.2-4-8-8 0-.1-.1-.2-.2-.2s-.1.1-.2.2c-.8 4.1-4 7.2-8 8-.1 0-.2.1-.2.2s.1.1.2.2c4.1.8 7.2 4 8 8 0 .1.1.2.2.2s.1-.1.2-.2c.8-4.1 4-7.2 8-8 .1 0 .2-.1.2-.2 0-.2-.1-.2-.2-.2z" style="fill:#55acd5"/><path class="st6" d="M237.9 37.2c-13.8-13.7-34.8-17-52.1-8.2-22-11.3-49-2.7-60.3 19.3-8.9 17.3-5.6 38.4 8.1 52.1l34.3 34.3.1.1c9.8 9.7 25.6 9.7 35.4 0l34.5-34.4c17.4-17.4 17.4-45.7 0-63.2zM234.4 97 200 131.3l1.8 1.8-1.9-1.7c-7.9 7.8-20.5 7.8-28.3 0l-.1-.1L137.2 97c-15.5-15.5-15.5-40.7 0-56.2 12.5-12.5 31.8-15.2 47.3-6.7.8.4 1.7.4 2.4 0 19.2-10.6 43.4-3.7 54 15.5 8.7 15.5 6 34.8-6.5 47.4z"/><path class="st6" d="M200.5 133.2c-.9-.6-2-.5-2.8.1-8 5.9-19 5-26.1-1.9L137.2 97c-11-11-14.6-27.5-9.1-42.1.5-1.3-.2-2.7-1.5-3.2-.4-.1-.7-.2-1.1-.1-7.4.7-14.7 2.7-21.5 5.7-26.6-11.8-57.8-6-78.4 14.6-27 27-27.6 70.6-1.3 98.3 1 1 2.5 1 3.5.1l.2-.2c.3-.3.5-.6.8-.9 5.7-5.6 14.8-5.6 20.5 0 1.4 1.3 3.5 1.3 4.9 0 5.7-5.7 14.8-5.7 20.5 0s5.7 14.8 0 20.5L61 203.1c-1 1-1 2.6 0 3.5l12.6 12.6.1.1c16.8 16.6 43.8 16.7 60.6.1l48.2-48.2c9.7-9.7 16.4-22 19.2-35.5.1-.9-.3-1.9-1.2-2.5zm-21.6 34.6L131 215.7l-.2.2c-14.9 14.7-38.8 14.6-53.6-.1l-10.9-10.9L78.2 193c7.6-7.6 7.6-19.9 0-27.5-7.2-7.2-18.7-7.6-26.4-1-7.4-6.3-18.2-6.2-25.5.2-23.9-27.2-21.2-68.6 6-92.4 19.5-17.1 47.2-21 70.7-10.1.7.3 1.4.3 2.1 0 5.4-2.5 11.2-4.3 17.1-5.2-4.3 15.5.1 32.1 11.5 43.5l34.3 34.3.1.1c7.2 7.1 17.9 9.2 27.2 5.4-3.1 10.4-8.7 19.8-16.4 27.5z"/><path class="st6" d="M184.8 138.2c-.4-.6-1.1-1.1-1.8-1.2-4.3-.6-8.3-2.5-11.4-5.6L137.2 97c-7.4-7.3-11.6-17.3-11.6-27.7 0-1.4-1.1-2.5-2.5-2.5h-.4c-6.6 1.2-12.9 3.5-18.6 7-21.9-13-49.8-9.5-67.9 8.4-21.7 21.7-21.7 56.9 0 78.7l3.3 3.3c.4.4.9.6 1.5.7 3.2.4 6.2 1.8 8.5 4.1 1.4 1.3 3.5 1.3 4.9 0 5.7-5.7 14.8-5.7 20.5 0 5.7 5.7 5.7 14.8 0 20.5l-3.2 3.2c-1 1-1 2.6 0 3.5l12.7 12.7c11 10.9 28.7 10.9 39.8 0l48.1-48.1c5.8-5.8 10.3-12.8 13-20.5 0-.7-.1-1.5-.5-2.1zm-16.4 19.1-47.9 47.9-.1.1c-9.1 8.9-23.6 8.9-32.7 0l-10.9-10.9 1.4-1.4c7.6-7.6 7.6-19.9 0-27.5-7.2-7.2-18.7-7.6-26.4-1-2.7-2.3-5.9-3.8-9.4-4.4l-2.7-2.7c-19.8-19.8-19.8-51.8 0-71.6 16.9-16.7 43-19.5 63.1-6.9.8.5 1.9.5 2.7 0 4.7-3 9.9-5.2 15.3-6.5.8 10.6 5.4 20.6 13 28.2l34.3 34.3.1.1c3.1 3.1 6.9 5.3 11.2 6.4-2.7 5.9-6.4 11.3-11 15.9z"/><path class="st6" d="M171.1 130.9 137.2 97c-4-4-7.1-8.8-9.1-14.1-.4-1.1-1.6-1.8-2.8-1.6-8 1.4-15.5 5.3-21.3 11-16-15.8-41.9-15.5-57.7.5-15.7 16-15.6 41.7.3 57.6l13.8 13.8c.6.6 1.3.8 2.1.7 7.9-1.1 15.2 4.4 16.3 12.3.2 1.3.2 2.7 0 4-.1.8.2 1.6.7 2.1l15.1 15.1c5.2 5.2 13.7 5.2 18.9 0l.1-.1 47.9-47.9c4.7-4.7 8.3-10.6 10.2-17 .3-.9.1-1.9-.6-2.5zm-13.1 16-48 48a8.39 8.39 0 0 1-11.9 0l-14.3-14.2c.8-10.7-7.3-20-18-20.8-.9-.1-1.9-.1-2.8 0l-13-13c-14-14-14-36.7 0-50.7s36.7-14 50.7 0c1.8 1.8 4.7 1.8 6.5 0 4.7-4.7 10.5-8 16.9-9.5 2.2 5.2 5.4 9.9 9.4 13.8l32.8 32.8c-1.6 5.1-4.5 9.7-8.3 13.6z"/><path class="st6" d="M78.2 165.5c-7.2-7.2-18.7-7.6-26.4-1-8.2-7-20.5-6-27.5 2.1-6.6 7.7-6.2 19.2 1 26.4l21.3 21.3c1.4 1.4 3.2 2.1 5.2 2.1s3.8-.8 5.2-2.2L78.2 193c7.6-7.6 7.6-19.9 0-27.5zm-3.5 24-21.2 21.2c-.9.9-2.4.9-3.3 0L29 189.5c-5.6-5.7-5.6-14.8.1-20.5 5.6-5.6 14.7-5.6 20.4 0 1.4 1.3 3.5 1.3 4.9 0 5.7-5.7 14.8-5.7 20.5 0 5.4 5.7 5.4 14.8-.2 20.5zM227.4 47.7C216 36.3 197.6 36 185.8 47c-12.1-11.3-31-10.7-42.3 1.4-11.1 11.8-10.8 30.2.7 41.7l34.4 34.4c1.9 1.9 4.5 3 7.3 3s5.4-1.1 7.4-3l34.3-34.3c11.5-11.8 11.5-30.8-.2-42.5zm-3.5 38.8-34.4 34.4c-2.1 2.1-5.5 2-7.6 0l-34.3-34.3c-9.7-9.7-9.7-25.5 0-35.3 9.7-9.7 25.5-9.7 35.3 0 1.6 1.6 4.1 1.6 5.7 0 9.7-9.7 25.5-9.7 35.3 0 9.8 9.7 9.8 25.5 0 35.2z"/></g></svg>